<?xml version="1.0" encoding="UTF-8"?>
<!DOCTYPE svg PUBLIC "-//W3C//DTD SVG 1.1//EN" "http://www.w3.org/Graphics/SVG/1.1/DTD/svg11.dtd">
<!-- Creator: CorelDRAW Standard 2024 -->
<svg xmlns="http://www.w3.org/2000/svg" xml:space="preserve" width="170.463mm" height="59.6877mm" version="1.1" style="shape-rendering:geometricPrecision; text-rendering:geometricPrecision; image-rendering:optimizeQuality; fill-rule:evenodd; clip-rule:evenodd"
viewBox="0 0 9082.17 3180.13"
 xmlns:xlink="http://www.w3.org/1999/xlink"
 xmlns:xodm="http://www.corel.com/coreldraw/odm/2003">
 <defs>
  <style type="text/css">
   <![CDATA[
    .fil0 {fill:black;fill-rule:nonzero}
    .fil1 {fill:url(#id0);fill-rule:nonzero}
   ]]>
  </style>
  <linearGradient id="id0" gradientUnits="userSpaceOnUse" x1="-0" y1="1590.07" x2="3706.44" y2="1590.07">
   <stop offset="0" style="stop-opacity:1; stop-color:#5E239D"/>
   <stop offset="1" style="stop-opacity:1; stop-color:#FF01FB"/>
  </linearGradient>
 </defs>
 <g id="Capa_x0020_1">
  <metadata id="CorelCorpID_0Corel-Layer"/>
  <path class="fil0" d="M4578.02 1419.2c-72.76,0 -133.67,-14.72 -182.72,-44.15 -49.05,-29.43 -86.25,-69.69 -111.59,-120.79 -25.35,-51.1 -38.43,-108.94 -39.24,-173.52l213.37 -9.81c1.64,60.49 12.88,104.64 33.72,132.44 20.85,27.8 49.67,41.7 86.46,41.7 35.97,0 64.38,-12.88 85.23,-38.63 20.85,-25.76 31.27,-66.83 31.27,-123.25l0 -554.28 213.37 0 0 554.28c0,68.67 -13.9,128.15 -41.69,178.43 -27.8,50.27 -66.43,89.11 -115.89,116.5 -49.46,27.39 -106.89,41.08 -172.29,41.08zm772.56 -4.91c-68.67,0 -128.76,-14.31 -180.27,-42.92 -51.51,-28.61 -91.56,-68.67 -120.18,-120.17 -28.61,-51.51 -42.92,-112 -42.92,-181.49 0,-69.49 14.31,-129.78 42.92,-180.88 28.62,-51.1 68.47,-91.16 119.56,-120.18 51.1,-29.02 110.98,-43.53 179.65,-43.53 68.67,0 128.15,14.51 178.43,43.53 50.27,29.02 88.9,70.51 115.88,124.47 26.98,53.96 40.47,118.13 40.47,192.53l0 39.24 -458.63 0c2.45,45.78 15.33,79.91 38.63,102.39 23.3,22.48 53.34,33.73 90.13,33.73 27.8,0 51.1,-5.52 69.9,-16.55 18.8,-11.04 32.29,-29.23 40.47,-54.57l210.92 12.26c-17.98,68.67 -56,121.2 -114.04,157.58 -58.04,36.38 -128.35,54.57 -210.92,54.57zm-125.08 -409.58l245.26 0c-1.64,-43.33 -13.49,-75.82 -35.56,-97.49 -22.07,-21.66 -50.69,-32.5 -85.84,-32.5 -33.52,0 -61.52,11.44 -84,34.34 -22.48,22.89 -35.77,54.77 -39.85,95.65zm858.4 409.58c-74.39,0 -135.1,-9.61 -182.1,-28.82 -47.01,-19.21 -82.36,-45.58 -106.07,-79.09 -23.71,-33.52 -37.2,-71.53 -40.47,-114.04l213.37 -7.36c4.91,29.43 16.35,51.51 34.34,66.22 17.99,14.71 45.37,22.07 82.16,22.07 28.61,0 50.48,-4.9 65.6,-14.72 15.13,-9.81 22.69,-24.11 22.69,-42.92 0,-12.26 -3.06,-22.48 -9.2,-30.66 -6.13,-8.18 -17.99,-15.54 -35.56,-22.07 -17.57,-6.54 -43.12,-12.67 -76.64,-18.39 -71.12,-11.45 -127.13,-25.55 -168,-42.31 -40.88,-16.76 -69.49,-38.22 -85.84,-64.38 -16.35,-26.17 -24.52,-58.86 -24.52,-98.1 0,-64.59 25.55,-116.5 76.64,-155.74 51.1,-39.24 128.15,-58.86 231.15,-58.86 69.49,0 126.31,9.81 170.46,29.43 44.14,19.62 77.67,46.81 100.55,81.55 22.89,34.74 35.56,75.01 38.01,120.79l-209.7 7.36c-0.82,-20.44 -4.9,-38.01 -12.26,-52.73 -7.36,-14.72 -18.4,-25.96 -33.11,-33.73 -14.72,-7.76 -33.52,-11.65 -56.41,-11.65 -26.98,0 -48.44,5.92 -64.38,17.78 -15.95,11.85 -23.92,28 -23.92,48.44 0,13.9 3.27,25.55 9.81,34.95 6.54,9.4 17.78,16.96 33.72,22.69 15.94,5.72 37.81,10.63 65.61,14.72 70.31,8.99 126.71,22.28 169.23,39.85 42.51,17.58 73.37,40.06 92.58,67.45 19.21,27.39 28.82,60.7 28.82,99.94 0,65.41 -27.18,115.48 -81.55,150.22 -54.37,34.74 -129.37,52.12 -225.02,52.12zm627.86 0c-68.67,0 -122.02,-21.87 -160.03,-65.61 -38.01,-43.74 -57.02,-104.84 -57.02,-183.33l0 -425.52 210.92 0 0 376.47c0,46.6 6.74,80.53 20.23,101.78 13.49,21.26 34.95,31.88 64.38,31.88 32.7,0 57.84,-11.65 75.42,-34.95 17.57,-23.3 26.36,-59.89 26.36,-109.76l0 -365.43 210.92 0 0 659.74 -190.07 0 -6.13 -198.66 24.52 3.68c-8.17,70.31 -30.66,122.84 -67.45,157.58 -36.79,34.74 -87.47,52.12 -152.06,52.12zm824.07 0c-74.39,0 -135.1,-9.61 -182.1,-28.82 -47.01,-19.21 -82.36,-45.58 -106.07,-79.09 -23.71,-33.52 -37.2,-71.53 -40.47,-114.04l213.37 -7.36c4.91,29.43 16.35,51.51 34.34,66.22 17.99,14.71 45.37,22.07 82.16,22.07 28.61,0 50.48,-4.9 65.6,-14.72 15.13,-9.81 22.69,-24.11 22.69,-42.92 0,-12.26 -3.06,-22.48 -9.2,-30.66 -6.13,-8.18 -17.99,-15.54 -35.56,-22.07 -17.57,-6.54 -43.12,-12.67 -76.64,-18.39 -71.12,-11.45 -127.13,-25.55 -168,-42.31 -40.88,-16.76 -69.49,-38.22 -85.84,-64.38 -16.35,-26.17 -24.52,-58.86 -24.52,-98.1 0,-64.59 25.55,-116.5 76.64,-155.74 51.1,-39.24 128.15,-58.86 231.15,-58.86 69.49,0 126.31,9.81 170.46,29.43 44.14,19.62 77.67,46.81 100.55,81.55 22.89,34.74 35.56,75.01 38.01,120.79l-209.7 7.36c-0.82,-20.44 -4.9,-38.01 -12.26,-52.73 -7.36,-14.72 -18.4,-25.96 -33.11,-33.73 -14.72,-7.76 -33.52,-11.65 -56.41,-11.65 -26.98,0 -48.44,5.92 -64.38,17.78 -15.95,11.85 -23.92,28 -23.92,48.44 0,13.9 3.27,25.55 9.81,34.95 6.54,9.4 17.78,16.96 33.72,22.69 15.94,5.72 37.81,10.63 65.61,14.72 70.31,8.99 126.71,22.28 169.23,39.85 42.51,17.58 73.37,40.06 92.58,67.45 19.21,27.39 28.82,60.7 28.82,99.94 0,65.41 -27.18,115.48 -81.55,150.22 -54.37,34.74 -129.37,52.12 -225.02,52.12zm-2982.34 1040.04l-315.15 -870.66 219.51 0 219.51 630.31 218.28 -630.31 219.51 0 -316.38 870.66 -245.26 0zm900.1 14.72c-68.67,0 -128.76,-14.31 -180.27,-42.92 -51.51,-28.61 -91.56,-68.67 -120.18,-120.17 -28.61,-51.51 -42.92,-112 -42.92,-181.49 0,-69.49 14.31,-129.78 42.92,-180.88 28.62,-51.1 68.47,-91.16 119.56,-120.18 51.1,-29.02 110.98,-43.53 179.65,-43.53 68.67,0 128.15,14.51 178.43,43.53 50.27,29.02 88.9,70.51 115.88,124.47 26.98,53.96 40.47,118.13 40.47,192.53l0 39.24 -458.63 0c2.45,45.78 15.33,79.91 38.63,102.39 23.3,22.48 53.34,33.73 90.13,33.73 27.8,0 51.1,-5.52 69.9,-16.55 18.8,-11.04 32.29,-29.23 40.47,-54.57l210.92 12.26c-17.98,68.67 -56,121.2 -114.04,157.58 -58.04,36.38 -128.35,54.57 -210.92,54.57zm-125.08 -409.58l245.26 0c-1.64,-43.33 -13.49,-75.82 -35.56,-97.49 -22.07,-21.66 -50.69,-32.5 -85.84,-32.5 -33.52,0 -61.52,11.44 -84,34.34 -22.48,22.89 -35.77,54.77 -39.85,95.65zm562.87 394.87l0 -659.74 202.33 0 7.36 199.89 -15.94 -2.46c11.44,-70.31 30.66,-120.79 57.64,-151.45 26.98,-30.66 64.59,-45.99 112.82,-45.99l57.63 0 0 170.46 -58.86 0c-35.15,0 -63.76,4.09 -85.84,12.26 -22.07,8.18 -38.63,21.46 -49.66,39.86 -11.04,18.39 -16.55,43.53 -16.55,75.42l0 361.75 -210.92 0zm801.99 198.66c-68.67,0 -124.88,-7.77 -168.61,-23.3 -43.74,-15.53 -77.87,-37.2 -102.4,-65 -24.52,-27.79 -42.1,-59.27 -52.73,-94.42l215.83 -15.94c5.72,18.8 16.55,33.32 32.5,43.53 15.94,10.22 41.08,15.33 75.42,15.33 38.42,0 67.85,-9.81 88.29,-29.43 20.44,-19.62 30.66,-51.92 30.66,-96.88l0 -58.86c-15.53,28.62 -40.47,51.92 -74.8,69.9 -34.34,17.98 -72.76,26.98 -115.28,26.98 -53.14,0 -100.35,-13.08 -141.63,-39.24 -41.29,-26.16 -73.58,-63.36 -96.88,-111.59 -23.3,-48.23 -34.95,-105.05 -34.95,-170.45 0,-62.95 11.65,-118.74 34.95,-167.39 23.3,-48.64 55.39,-86.86 96.27,-114.66 40.88,-27.8 88.29,-41.7 142.25,-41.7 49.05,0 89.52,10.63 121.4,31.89 31.89,21.25 56.41,49.05 73.58,83.39l0 -100.56 208.47 0 0 588.62c0,60.49 -14.31,110.77 -42.92,150.83 -28.62,40.06 -67.86,69.9 -117.73,89.52 -49.87,19.62 -107.09,29.43 -171.68,29.43zm-2.46 -376.47c38.43,0 68.67,-15.33 90.75,-45.99 22.07,-30.66 33.11,-73.38 33.11,-128.15 0,-36.79 -4.91,-68.27 -14.72,-94.43 -9.81,-26.16 -23.91,-46.19 -42.31,-60.08 -18.39,-13.9 -40.67,-20.85 -66.83,-20.85 -39.24,0 -69.9,15.94 -91.97,47.82 -22.07,31.88 -33.11,74.39 -33.11,127.54 0,53.14 11.44,95.44 34.33,126.92 22.89,31.48 53.14,47.22 90.75,47.22zm686.72 192.53c-68.67,0 -125.08,-15.94 -169.23,-47.82 -44.15,-31.89 -66.22,-76.03 -66.22,-132.44 0,-58.04 18.81,-103.01 56.41,-134.89 37.6,-31.89 92.38,-55.19 164.32,-69.9l204.79 -41.69c0,-38.43 -8.38,-67.65 -25.14,-87.68 -16.76,-20.03 -40.67,-30.04 -71.74,-30.04 -31.07,0 -55.39,7.57 -72.97,22.69 -17.58,15.13 -28.82,36.59 -33.72,64.38l-210.92 -7.36c13.08,-76.03 47.01,-132.44 101.78,-169.23 54.78,-36.79 126.72,-55.19 215.83,-55.19 103.01,0 180.06,23.3 231.15,69.9 51.1,46.6 76.64,116.09 76.64,208.47l0 208.47c0,20.44 3.47,33.93 10.42,40.47 6.95,6.54 16.56,9.81 28.82,9.81l15.94 0 0 137.34c-6.54,2.45 -17.17,4.5 -31.88,6.13 -14.72,1.64 -29.02,2.45 -42.92,2.45 -25.34,0 -49.86,-4.29 -73.57,-12.88 -23.71,-8.58 -43.33,-24.11 -58.86,-46.6 -15.53,-22.48 -23.3,-54.98 -23.3,-97.49l15.94 15.94c-8.17,29.43 -22.69,55.38 -43.53,77.87 -20.84,22.48 -47.62,39.65 -80.32,51.51 -32.7,11.85 -71.94,17.78 -117.73,17.78zm55.19 -137.34c26.16,0 49.46,-5.31 69.9,-15.94 20.44,-10.63 36.38,-26.16 47.82,-46.6 11.44,-20.44 17.17,-45.78 17.17,-76.03l0 -26.98 -127.53 29.43c-25.35,5.72 -45.17,14.51 -59.48,26.36 -14.31,11.85 -21.46,27.59 -21.46,47.22 0,19.62 6.13,34.95 18.39,45.99 12.26,11.03 30.66,16.55 55.19,16.55zm490.51 122.63l0 -659.74 202.33 0 7.36 199.89 -15.94 -2.46c11.44,-70.31 30.66,-120.79 57.64,-151.45 26.98,-30.66 64.59,-45.99 112.82,-45.99l57.63 0 0 170.46 -58.86 0c-35.15,0 -63.76,4.09 -85.84,12.26 -22.07,8.18 -38.63,21.46 -49.66,39.86 -11.04,18.39 -16.55,43.53 -16.55,75.42l0 361.75 -210.92 0zm702.66 14.72c-68.67,0 -125.08,-15.94 -169.23,-47.82 -44.15,-31.89 -66.22,-76.03 -66.22,-132.44 0,-58.04 18.81,-103.01 56.41,-134.89 37.6,-31.89 92.38,-55.19 164.32,-69.9l204.79 -41.69c0,-38.43 -8.38,-67.65 -25.14,-87.68 -16.76,-20.03 -40.67,-30.04 -71.74,-30.04 -31.07,0 -55.39,7.57 -72.97,22.69 -17.58,15.13 -28.82,36.59 -33.72,64.38l-210.92 -7.36c13.08,-76.03 47.01,-132.44 101.78,-169.23 54.78,-36.79 126.72,-55.19 215.83,-55.19 103.01,0 180.06,23.3 231.15,69.9 51.1,46.6 76.64,116.09 76.64,208.47l0 208.47c0,20.44 3.47,33.93 10.42,40.47 6.95,6.54 16.56,9.81 28.82,9.81l15.94 0 0 137.34c-6.54,2.45 -17.17,4.5 -31.88,6.13 -14.72,1.64 -29.02,2.45 -42.92,2.45 -25.34,0 -49.86,-4.29 -73.57,-12.88 -23.71,-8.58 -43.33,-24.11 -58.86,-46.6 -15.53,-22.48 -23.3,-54.98 -23.3,-97.49l15.94 15.94c-8.17,29.43 -22.69,55.38 -43.53,77.87 -20.84,22.48 -47.62,39.65 -80.32,51.51 -32.7,11.85 -71.94,17.78 -117.73,17.78zm55.19 -137.34c26.16,0 49.46,-5.31 69.9,-15.94 20.44,-10.63 36.38,-26.16 47.82,-46.6 11.44,-20.44 17.17,-45.78 17.17,-76.03l0 -26.98 -127.53 29.43c-25.35,5.72 -45.17,14.51 -59.48,26.36 -14.31,11.85 -21.46,27.59 -21.46,47.22 0,19.62 6.13,34.95 18.39,45.99 12.26,11.03 30.66,16.55 55.19,16.55z"/>
  <path class="fil1" d="M570.76 0.01l-570.76 0 1787.9 3180.13 336.51 -557.62 -1553.65 -2622.52zm382.73 0l257.57 464.04 1589.64 0 -820.66 1386.5 292.23 526.81 1434.16 -2377.36 -2752.95 0z"/>
 </g>
</svg>
