<?xml version="1.0" encoding="UTF-8"?>
<!DOCTYPE svg PUBLIC "-//W3C//DTD SVG 1.1//EN" "http://www.w3.org/Graphics/SVG/1.1/DTD/svg11.dtd">
<!-- Creator: CorelDRAW Standard 2024 -->
<svg xmlns="http://www.w3.org/2000/svg" xml:space="preserve" width="170.463mm" height="59.6877mm" version="1.1" style="shape-rendering:geometricPrecision; text-rendering:geometricPrecision; image-rendering:optimizeQuality; fill-rule:evenodd; clip-rule:evenodd"
viewBox="0 0 9162.68 3208.33"
 xmlns:xlink="http://www.w3.org/1999/xlink"
 xmlns:xodm="http://www.corel.com/coreldraw/odm/2003">
 <defs>
  <style type="text/css">
   <![CDATA[
    .fil0 {fill:white;fill-rule:nonzero}
    .fil1 {fill:url(#id0);fill-rule:nonzero}
   ]]>
  </style>
  <linearGradient id="id0" gradientUnits="userSpaceOnUse" x1="-0" y1="1604.17" x2="3739.3" y2="1604.17">
   <stop offset="0" style="stop-opacity:1; stop-color:#5E239D"/>
   <stop offset="1" style="stop-opacity:1; stop-color:#FF01FB"/>
  </linearGradient>
 </defs>
 <g id="Capa_x0020_1">
  <metadata id="CorelCorpID_0Corel-Layer"/>
  <path class="fil0" d="M4618.6 1431.78c-73.41,0 -134.85,-14.85 -184.34,-44.54 -49.49,-29.69 -87.01,-70.31 -112.58,-121.86 -25.57,-51.55 -38.77,-109.9 -39.59,-175.06l215.27 -9.9c1.65,61.03 12.99,105.57 34.02,133.61 21.03,28.04 50.11,42.07 87.22,42.07 36.29,0 64.95,-12.99 85.98,-38.97 21.03,-25.98 31.55,-67.43 31.55,-124.34l0 -559.19 215.27 0 0 559.19c0,69.28 -14.02,129.28 -42.06,180.01 -28.04,50.72 -67.02,89.9 -116.92,117.53 -49.9,27.63 -107.84,41.45 -173.82,41.45zm779.41 -4.95c-69.28,0 -129.9,-14.43 -181.86,-43.3 -51.96,-28.86 -92.37,-69.28 -121.24,-121.24 -28.86,-51.96 -43.3,-113 -43.3,-183.1 0,-70.11 14.44,-130.93 43.3,-182.48 28.87,-51.55 69.08,-91.96 120.62,-121.24 51.55,-29.28 111.96,-43.92 181.24,-43.92 69.28,0 129.28,14.64 180.01,43.92 50.72,29.28 89.69,71.14 116.91,125.58 27.22,54.43 40.82,119.18 40.82,194.23l0 39.59 -462.7 0c2.47,46.19 15.46,80.62 38.97,103.3 23.51,22.68 53.82,34.02 90.93,34.02 28.04,0 51.55,-5.57 70.52,-16.7 18.97,-11.14 32.58,-29.49 40.83,-55.06l212.79 12.37c-18.14,69.28 -56.49,122.27 -115.06,158.98 -58.56,36.7 -129.49,55.05 -212.79,55.05zm-126.19 -413.21l247.43 0c-1.65,-43.71 -13.6,-76.49 -35.87,-98.36 -22.27,-21.86 -51.14,-32.78 -86.61,-32.78 -33.82,0 -62.06,11.55 -84.75,34.64 -22.68,23.09 -36.08,55.26 -40.21,96.5zm866.01 413.21c-75.05,0 -136.29,-9.69 -183.72,-29.07 -47.43,-19.38 -83.1,-45.98 -107.01,-79.79 -23.92,-33.82 -37.53,-72.17 -40.83,-115.06l215.27 -7.42c4.95,29.69 16.5,51.96 34.64,66.81 18.15,14.84 45.78,22.26 82.89,22.26 28.86,0 50.93,-4.95 66.18,-14.85 15.26,-9.9 22.89,-24.33 22.89,-43.3 0,-12.37 -3.09,-22.68 -9.28,-30.93 -6.19,-8.25 -18.15,-15.67 -35.88,-22.27 -17.73,-6.6 -43.5,-12.78 -77.32,-18.56 -71.75,-11.55 -128.25,-25.78 -169.49,-42.68 -41.24,-16.91 -70.1,-38.56 -86.6,-64.95 -16.5,-26.4 -24.74,-59.39 -24.74,-98.97 0,-65.16 25.77,-117.53 77.32,-157.12 51.55,-39.59 129.28,-59.39 233.2,-59.39 70.11,0 127.43,9.9 171.97,29.69 44.53,19.8 78.35,47.22 101.45,82.27 23.09,35.05 35.88,75.67 38.35,121.86l-211.56 7.42c-0.82,-20.62 -4.95,-38.35 -12.37,-53.2 -7.42,-14.85 -18.56,-26.19 -33.41,-34.02 -14.85,-7.83 -33.82,-11.75 -56.91,-11.75 -27.22,0 -48.87,5.98 -64.95,17.94 -16.09,11.96 -24.13,28.25 -24.13,48.87 0,14.02 3.3,25.77 9.9,35.26 6.6,9.49 17.94,17.11 34.02,22.89 16.08,5.77 38.15,10.72 66.19,14.85 70.93,9.07 127.84,22.47 170.73,40.21 42.89,17.73 74.02,40.42 93.4,68.04 19.38,27.63 29.07,61.24 29.07,100.83 0,65.99 -27.42,116.5 -82.27,151.55 -54.85,35.05 -130.52,52.58 -227.02,52.58zm633.42 0c-69.28,0 -123.1,-22.07 -161.45,-66.19 -38.35,-44.12 -57.53,-105.77 -57.53,-184.95l0 -429.29 212.79 0 0 379.81c0,47.01 6.8,81.24 20.41,102.68 13.61,21.45 35.26,32.17 64.95,32.17 32.99,0 58.35,-11.75 76.09,-35.26 17.73,-23.51 26.6,-60.42 26.6,-110.73l0 -368.67 212.79 0 0 665.59 -191.76 0 -6.19 -200.42 24.74 3.71c-8.25,70.93 -30.93,123.92 -68.04,158.98 -37.12,35.05 -88.25,52.58 -153.41,52.58zm831.38 0c-75.05,0 -136.29,-9.69 -183.72,-29.07 -47.43,-19.38 -83.1,-45.98 -107.01,-79.79 -23.92,-33.82 -37.53,-72.17 -40.83,-115.06l215.27 -7.42c4.95,29.69 16.5,51.96 34.64,66.81 18.15,14.84 45.78,22.26 82.89,22.26 28.86,0 50.93,-4.95 66.18,-14.85 15.26,-9.9 22.89,-24.33 22.89,-43.3 0,-12.37 -3.09,-22.68 -9.28,-30.93 -6.19,-8.25 -18.15,-15.67 -35.88,-22.27 -17.73,-6.6 -43.5,-12.78 -77.32,-18.56 -71.75,-11.55 -128.25,-25.78 -169.49,-42.68 -41.24,-16.91 -70.1,-38.56 -86.6,-64.95 -16.5,-26.4 -24.74,-59.39 -24.74,-98.97 0,-65.16 25.77,-117.53 77.32,-157.12 51.55,-39.59 129.28,-59.39 233.2,-59.39 70.11,0 127.43,9.9 171.97,29.69 44.53,19.8 78.35,47.22 101.45,82.27 23.09,35.05 35.88,75.67 38.35,121.86l-211.56 7.42c-0.82,-20.62 -4.95,-38.35 -12.37,-53.2 -7.42,-14.85 -18.56,-26.19 -33.41,-34.02 -14.85,-7.83 -33.82,-11.75 -56.91,-11.75 -27.22,0 -48.87,5.98 -64.95,17.94 -16.09,11.96 -24.13,28.25 -24.13,48.87 0,14.02 3.3,25.77 9.9,35.26 6.6,9.49 17.94,17.11 34.02,22.89 16.08,5.77 38.15,10.72 66.19,14.85 70.93,9.07 127.84,22.47 170.73,40.21 42.89,17.73 74.02,40.42 93.4,68.04 19.38,27.63 29.07,61.24 29.07,100.83 0,65.99 -27.42,116.5 -82.27,151.55 -54.85,35.05 -130.52,52.58 -227.02,52.58zm-3008.78 1049.26l-317.95 -878.38 221.45 0 221.45 635.9 220.21 -635.9 221.45 0 -319.19 878.38 -247.43 0zm908.08 14.85c-69.28,0 -129.9,-14.43 -181.86,-43.3 -51.96,-28.86 -92.37,-69.28 -121.24,-121.24 -28.86,-51.96 -43.3,-113 -43.3,-183.1 0,-70.11 14.44,-130.93 43.3,-182.48 28.87,-51.55 69.08,-91.96 120.62,-121.24 51.55,-29.28 111.96,-43.92 181.24,-43.92 69.28,0 129.28,14.64 180.01,43.92 50.72,29.28 89.69,71.14 116.91,125.58 27.22,54.43 40.82,119.18 40.82,194.23l0 39.59 -462.7 0c2.47,46.19 15.46,80.62 38.97,103.3 23.51,22.68 53.82,34.02 90.93,34.02 28.04,0 51.55,-5.57 70.52,-16.7 18.97,-11.14 32.58,-29.49 40.83,-55.06l212.79 12.37c-18.14,69.28 -56.49,122.27 -115.06,158.98 -58.56,36.7 -129.49,55.05 -212.79,55.05zm-126.19 -413.21l247.43 0c-1.65,-43.71 -13.6,-76.49 -35.87,-98.36 -22.27,-21.86 -51.14,-32.78 -86.61,-32.78 -33.82,0 -62.06,11.55 -84.75,34.64 -22.68,23.09 -36.08,55.26 -40.21,96.5zm567.86 398.37l0 -665.59 204.13 0 7.42 201.66 -16.08 -2.48c11.55,-70.93 30.93,-121.86 58.15,-152.79 27.21,-30.93 65.16,-46.39 113.82,-46.39l58.14 0 0 171.97 -59.39 0c-35.46,0 -64.33,4.12 -86.6,12.37 -22.27,8.25 -38.97,21.65 -50.1,40.21 -11.14,18.56 -16.7,43.92 -16.7,76.09l0 364.96 -212.79 0zm809.1 200.42c-69.28,0 -125.98,-7.84 -170.11,-23.51 -44.12,-15.67 -78.56,-37.53 -103.31,-65.57 -24.74,-28.04 -42.47,-59.79 -53.2,-95.26l217.74 -16.08c5.77,18.97 16.7,33.61 32.78,43.92 16.08,10.31 41.44,15.46 76.09,15.46 38.76,0 68.45,-9.9 89.07,-29.69 20.62,-19.8 30.93,-52.38 30.93,-97.74l0 -59.39c-15.67,28.87 -40.82,52.38 -75.46,70.52 -34.64,18.14 -73.41,27.21 -116.3,27.21 -53.61,0 -101.24,-13.2 -142.89,-39.59 -41.65,-26.39 -74.23,-63.92 -97.74,-112.58 -23.51,-48.66 -35.26,-105.98 -35.26,-171.96 0,-63.51 11.76,-119.8 35.26,-168.87 23.51,-49.08 55.88,-87.63 97.12,-115.67 41.24,-28.04 89.07,-42.07 143.51,-42.07 49.49,0 90.31,10.72 122.48,32.17 32.17,21.44 56.91,49.48 74.23,84.13l0 -101.45 210.32 0 0 593.84c0,61.03 -14.43,111.76 -43.3,152.17 -28.87,40.42 -68.46,70.52 -118.77,90.31 -50.31,19.8 -108.04,29.69 -173.2,29.69zm-2.48 -379.81c38.77,0 69.28,-15.46 91.55,-46.39 22.27,-30.93 33.41,-74.03 33.41,-129.28 0,-37.12 -4.95,-68.87 -14.85,-95.26 -9.9,-26.39 -24.12,-46.6 -42.68,-60.62 -18.56,-14.02 -41.03,-21.03 -67.43,-21.03 -39.59,0 -70.52,16.08 -92.79,48.25 -22.27,32.17 -33.4,75.05 -33.4,128.67 0,53.61 11.55,96.29 34.64,128.04 23.1,31.76 53.61,47.63 91.55,47.63zm692.81 194.23c-69.28,0 -126.19,-16.08 -170.73,-48.25 -44.54,-32.17 -66.81,-76.7 -66.81,-133.62 0,-58.56 18.97,-103.92 56.91,-136.08 37.94,-32.17 93.2,-55.68 165.78,-70.52l206.61 -42.06c0,-38.77 -8.45,-68.25 -25.36,-88.46 -16.9,-20.21 -41.03,-30.31 -72.37,-30.31 -31.34,0 -55.88,7.63 -73.61,22.89 -17.73,15.26 -29.07,36.91 -34.02,64.95l-212.79 -7.42c13.2,-76.7 47.43,-133.61 102.68,-170.73 55.26,-37.12 127.84,-55.68 217.74,-55.68 103.92,0 181.65,23.51 233.2,70.52 51.55,47.01 77.32,117.11 77.32,210.32l0 210.32c0,20.62 3.5,34.23 10.51,40.83 7.01,6.6 16.71,9.9 29.07,9.9l16.08 0 0 138.56c-6.6,2.47 -17.32,4.54 -32.17,6.19 -14.85,1.65 -29.28,2.47 -43.3,2.47 -25.56,0 -50.31,-4.33 -74.23,-12.99 -23.92,-8.66 -43.72,-24.33 -59.39,-47.01 -15.67,-22.68 -23.51,-55.47 -23.51,-98.35l16.08 16.08c-8.25,29.69 -22.89,55.88 -43.92,78.56 -21.03,22.68 -48.04,40 -81.03,51.96 -32.99,11.95 -72.58,17.94 -118.77,17.94zm55.68 -138.56c26.39,0 49.9,-5.36 70.52,-16.08 20.62,-10.72 36.7,-26.39 48.25,-47.01 11.55,-20.62 17.32,-46.19 17.32,-76.7l0 -27.22 -128.66 29.69c-25.57,5.77 -45.57,14.64 -60,26.6 -14.43,11.96 -21.65,27.84 -21.65,47.63 0,19.79 6.19,35.26 18.56,46.39 12.37,11.13 30.93,16.7 55.68,16.7zm494.86 123.72l0 -665.59 204.13 0 7.42 201.66 -16.08 -2.48c11.55,-70.93 30.93,-121.86 58.15,-152.79 27.21,-30.93 65.16,-46.39 113.82,-46.39l58.14 0 0 171.97 -59.39 0c-35.46,0 -64.33,4.12 -86.6,12.37 -22.27,8.25 -38.97,21.65 -50.1,40.21 -11.14,18.56 -16.7,43.92 -16.7,76.09l0 364.96 -212.79 0zm708.89 14.85c-69.28,0 -126.19,-16.08 -170.73,-48.25 -44.54,-32.17 -66.81,-76.7 -66.81,-133.62 0,-58.56 18.97,-103.92 56.91,-136.08 37.94,-32.17 93.2,-55.68 165.78,-70.52l206.61 -42.06c0,-38.77 -8.45,-68.25 -25.36,-88.46 -16.9,-20.21 -41.03,-30.31 -72.37,-30.31 -31.34,0 -55.88,7.63 -73.61,22.89 -17.73,15.26 -29.07,36.91 -34.02,64.95l-212.79 -7.42c13.2,-76.7 47.43,-133.61 102.68,-170.73 55.26,-37.12 127.84,-55.68 217.74,-55.68 103.92,0 181.65,23.51 233.2,70.52 51.55,47.01 77.32,117.11 77.32,210.32l0 210.32c0,20.62 3.5,34.23 10.51,40.83 7.01,6.6 16.71,9.9 29.07,9.9l16.08 0 0 138.56c-6.6,2.47 -17.32,4.54 -32.17,6.19 -14.85,1.65 -29.28,2.47 -43.3,2.47 -25.56,0 -50.31,-4.33 -74.23,-12.99 -23.92,-8.66 -43.72,-24.33 -59.39,-47.01 -15.67,-22.68 -23.51,-55.47 -23.51,-98.35l16.08 16.08c-8.25,29.69 -22.89,55.88 -43.92,78.56 -21.03,22.68 -48.04,40 -81.03,51.96 -32.99,11.95 -72.58,17.94 -118.77,17.94zm55.68 -138.56c26.39,0 49.9,-5.36 70.52,-16.08 20.62,-10.72 36.7,-26.39 48.25,-47.01 11.55,-20.62 17.32,-46.19 17.32,-76.7l0 -27.22 -128.66 29.69c-25.57,5.77 -45.57,14.64 -60,26.6 -14.43,11.96 -21.65,27.84 -21.65,47.63 0,19.79 6.19,35.26 18.56,46.39 12.37,11.13 30.93,16.7 55.68,16.7z"/>
  <path class="fil1" d="M575.82 0.01l-575.82 0 1803.75 3208.33 339.5 -562.56 -1567.43 -2645.76zm386.13 0l259.86 468.16 1603.73 0 -827.93 1398.79 294.82 531.48 1446.88 -2398.43 -2777.35 0z"/>
 </g>
</svg>
